<svg width="450" height="275" viewBox="0 0 450 275" fill="none" xmlns="http://www.w3.org/2000/svg">
<path d="M113.7 75.2L58.3 144.6C57.9 145.1 57.9 146.1 58.3 146.6L113.7 214.7" stroke="#ADD251" stroke-width="18" stroke-miterlimit="10"/>
<path d="M185.7 31.1L158.2 31C156.5 31 155.2 32.3 155.2 34V242.8C155.2 244.5 156.6 245.8 158.2 245.8H186.8" stroke="#DFDFD6" stroke-width="18" stroke-miterlimit="10"/>
<path d="M337.2 75.2L392.6 144.6C393 145.1 393 146.1 392.6 146.6L337.2 214.7" stroke="#ADD251" stroke-width="18" stroke-miterlimit="10"/>
<path d="M265.2 31.1L292.7 31C294.4 31 295.7 32.3 295.7 34V242.8C295.7 244.5 294.3 245.8 292.7 245.8H264.1" stroke="#DFDFD6" stroke-width="18" stroke-miterlimit="10"/>
<path d="M264.1 60.1H186.7V197.2H264.1V60.1Z" fill="#ADD252" stroke="#ADD251" stroke-miterlimit="10"/>
<path d="M225.4 245.9C233.022 245.9 239.2 239.722 239.2 232.1C239.2 224.478 233.022 218.3 225.4 218.3C217.778 218.3 211.6 224.478 211.6 232.1C211.6 239.722 217.778 245.9 225.4 245.9Z" fill="#DFDFD6"/>
</svg>
